<svg xmlns="http://www.w3.org/2000/svg" xml:space="preserve" fill-rule="evenodd" stroke-linejoin="round" stroke-miterlimit="2" clip-rule="evenodd" viewBox="0 0 584 417" class="size-16 text-primary"><path fill="none" d="M0 0h583.333v416.667H0z"></path><clipPath id="a"><path d="M0 0h583.333v416.667H0z"></path></clipPath><g clip-path="url(#a)"><path fill="currentColor" d="M174.18 69.635c18.34-26.497 57.178-46.153 102.378-48.796 5.279-.23 13.913 6.962-.587 11.155-9.954 2.995-29.261 11.986-39.33 32.487-4.909 9.828-43.636 86.563-82.603 163.764 7.792-4.189 18.829-8.875 30.696-10.195 23.134-2.632 31.405 1.928 50.946 20.861 19.542 18.823 11.508 44.836 7.675 51.554-3.83 6.714-39.32 68.092-39.32 68.092s-5.758 17.382 3.833 22.895c9.591 5.524 15.945 1.565 26.259-2.873 10.188-4.44 22.055-16.062 22.055-16.062s-9.228-9.708-6.951-18.223c2.28-8.517 8.868-19.183 23.619-19.183 14.744 0 26.611 9.112 29.488 19.779 2.884 10.674-.065 15.679-3.833 20.264-9.077 11.034-22.419 6.358-22.419 6.358s-1.564 4.79 11.508 8.982c13.191 4.195 32.369 8.635 40.759 5.163 8.271-3.599 22.414-8.632 18.221-33.329-4.193-24.705-47.113-46.399-53.827-77.926-4.79-22.417 1.083-44.718 41-55.147 21.821-5.632 52.392-5.761 73.735 4.189 14.384 6.718 23.738 19.545 24.928 26.977 3.236 18.222-.23 28.536-5.394 33.572-5.15 5.153-21.458 11.272-36.799 2.638-15.467-8.63-15.708-27.218-11.634-33.327 4.204-6.118 8.397-10.315 16.06-10.908 7.678-.601 13.436-.971 13.436-.971s-4.078-10.548-17.625-11.867c-13.428-1.324-25.295-.597-33.563 2.873-8.4 3.481-20.864 13.431-15.715 26.982 5.038 13.425 38.727 45.433 47.358 56.705 8.634 11.145 13.55 23.736 11.87 35.487-1.557 11.86-7.674 33.084-36.565 40.397-28.769 7.43-67.855 2.873-83.311-6.718-15.352-9.59-17.629-12.228-17.629-12.228s-40.639 28.899-72.415 20.628c-31.645-8.4-38.119-24.695-40.035-36.563-1.924-11.871 0-40.77 20.494-66.656 20.498-26.017 34.048-50.36 25.662-57.067-7.44-6.002-24.705-6.599-58.023 25.537a183562.784 183562.784 0 0 0-69.298 136.898H-1.21L174.18 69.635Zm375.597 56.106c19.181 2.758 34.767 17.15 34.767 32.254s-15.586 25.173-34.767 22.537c-19.179-2.762-34.764-17.143-34.764-32.247 0-15.103 15.585-25.183 34.764-22.544Zm-73.009 111.98s-7.674-8.634-5.153-12.953c2.514-4.442 19.056-6.952 34.648 8.63 15.582 15.586 23.609 32.254 15.701 52.754-7.793 20.375-40.884 71.925-43.642 78.642-2.755 6.718 4.682 16.541 11.388 17.264 6.718.841 19.66-2.277 31.531-10.909 11.752-8.75 17.628-25.653 26.737-25.653 8.994 0-1.082 15.934-3.596 17.381-2.395 1.322-28.294 36.926-67.251 31.402-38.971-5.513-55.876-21.213-52.277-56.224 3.481-34.999 50.361-69.294 51.914-100.334Z"></path></g></svg>
